<?xml version="1.0" standalone="no"?>
<!DOCTYPE svg PUBLIC "-//W3C//DTD SVG 20010904//EN"
 "http://www.w3.org/TR/2001/REC-SVG-20010904/DTD/svg10.dtd">
<svg version="1.0" xmlns="http://www.w3.org/2000/svg"
 width="16.000000pt" height="16.000000pt" viewBox="0 0 16.000000 16.000000"
 preserveAspectRatio="xMidYMid meet">

<g transform="translate(0.000000,16.000000) scale(0.100000,-0.100000)"
fill="#000000" stroke="none">
<path d="M0 124 c0 -22 4 -33 11 -29 5 4 19 -1 30 -11 19 -17 21 -16 58 20 22
21 44 35 50 32 6 -4 11 0 11 8 0 13 -14 16 -80 16 l-80 0 0 -36z"/>
<path d="M108 63 l-47 -47 -31 29 -30 29 0 -37 0 -37 80 0 80 0 0 55 c0 30 -1
55 -3 55 -1 0 -23 -21 -49 -47z"/>
</g>
</svg>
